# AST/ASF file generated using VICON BodyLanguage
# -----------------------------------------------
:version 1.10
:name VICON
:units
  mass 1.0
  length 0.45
  angle deg
:documentation
   .ast/.asf automatically generated from VICON data using
   VICON BodyBuilder and BodyLanguage model FoxedUp or BRILLIANT.MOD
:root
   order TX TY TZ RX RY RZ
   axis XYZ
   position 0 0 0  
   orientation 0 0 0 
:bonedata
  begin
     id 1 
     name lhipjoint
     direction 0.440178 -0.822639 0.359871 
     length 2.53113 
     axis 0 0 0  XYZ
  end
  begin
     id 2 
     name lfemur
     direction 0.34202 -0.939693 0  
     length 7.88132  
     axis 0 0 20  XYZ
    dof rx ry rz
    limits (-160.0 20.0)
           (-70.0 70.0)
           (-60.0 70.0)
  end
  begin
     id 3 
     name ltibia
     direction 0.34202 -0.939693 0   
     length 8.43783   
     axis 0 0 20   XYZ
    dof rx
    limits (-10.0 170.0)
  end
  begin
     id 4 
     name lfoot
     direction 0.0886351 -0.243523 0.965837   
     length 2.63414   
     axis -90 7.62852e-016 20   XYZ
    dof rx rz
    limits (-45.0 90.0)
           (-70.0 20.0)
  end
  begin
     id 5 
     name ltoes
     direction 1.53703e-011 -4.21717e-011 1   
     length 1.31427   
     axis -90 7.62852e-016 20   XYZ
    dof rx
    limits (-90.0 20.0)
  end
  begin
     id 6 
     name rhipjoint
     direction -0.399779 -0.839773 0.367367   
     length 2.47948  
     axis 0 0 0  XYZ 
  end
  begin
     id 7 
     name rfemur
     direction -0.34202 -0.939693 0   
     length 7.74806   
     axis 0 0 -20   XYZ
    dof rx ry rz
    limits (-160.0 20.0)
           (-70.0 70.0)
           (-70.0 60.0)
  end
  begin
     id 8 
     name rtibia
     direction -0.34202 -0.939693 0   
     length 8.74432   
     axis 0 0 -20   XYZ
    dof rx
    limits (-10.0 170.0)
 end
 begin
     id 9 
     name rfoot
     direction -0.108514 -0.298139 0.948334   
     length 2.66102  
     axis -90 -7.62852e-016 -20   XYZ
    dof rx rz
    limits (-45.0 90.0)
           (-20.0 70.0)
  end
  begin
     id 10 
     name rtoes
     direction -1.53392e-011 -4.22077e-011 1   
     length 1.31983   
     axis -90 -7.62852e-016 -20   XYZ
    dof rx
    limits (-90.0 20.0)
  end
  begin
     id 11 
     name lowerback
     direction 0.0113257 0.999866 0.0118602   
     length 2.58694   
     axis 0 0 0   XYZ
    dof rx ry rz
    limits (-20.0 45.0)
           (-30.0 30.0)
           (-30.0 30.0)
  end
  begin
     id 12 
     name upperback
     direction -0.0164747 0.995193 -0.0965375   
     length 2.52368   
     axis 0 0 0   XYZ
    dof rx ry rz
    limits (-20.0 45.0)
           (-30.0 30.0)
           (-30.0 30.0)
  end
  begin
     id 13 
     name thorax
     direction -0.0194301 0.99433 -0.104552   
     length 2.56099   
     axis 0 0 0   XYZ
    dof rx ry rz
    limits (-20.0 45.0)
           (-30.0 30.0)
           (-30.0 30.0)
  end
  begin
     id 14 
     name lowerneck
     direction 0.0148543 0.995587 -0.092657   
     length 1.71582   
     axis 0 0 0   XYZ
    dof rx ry rz
    limits (-20.0 45.0)
           (-30.0 30.0)
           (-30.0 30.0)
  end
  begin
     id 15 
     name upperneck
     direction -0.0135467 0.993656 -0.111639   
     length 1.68937   
     axis 0 0 0   XYZ
    dof rx ry rz
    limits (-20.0 45.0)
           (-30.0 30.0)
           (-30.0 30.0)
  end
  begin
     id 16
     name head
     direction -0.00615349 0.999547 -0.029448  
     length 1.7462  
     axis 0 0 0   XYZ
    dof rx ry rz
    limits (-20.0 45.0)
           (-30.0 30.0)
           (-30.0 30.0)
  end
  begin
     id 17 
     name lclavicle
     direction 0.988267 0.149885 0.0293713  
     length 4.47222  
     axis 0 0 0   XYZ
    dof ry rz
    limits (-20.0 10.0)
           (0.0 20.0)
  end
  begin
     id 18 
     name lhumerus
     direction 1 -4.48986e-011 -1.14833e-027   
     length 5.37148   
     axis 180 -30 -90   XYZ
    dof rx ry rz
    limits (-60.0 90.0)
           (-90.0 90.0)
           (-90.0 90.0)
  end
  begin
     id 19
     name lradius
     direction 0.999998 0.00170963 -0.000987055   
     length 3.94212   
     axis 180 -30 -90   XYZ
    dof rx
    limits (-10.0 170.0)
  end
  begin
     id 20
     name lwrist
     direction 0.999998 7.53149e-005 -0.00194706   
     length 1.97106   
     axis 4.65056e-015 90 90   XYZ
    dof ry
    limits (-180.0 0.0)
 end
  begin
     id 21 
     name lhand
     direction 1 -4.48973e-011 -1.31746e-026   
     length 1.17917   
     axis 8.4065e-015 90 90   XYZ
    dof rx rz
    limits (-90.0 90.0)
           (-45.0 45.0)
  end
  begin
     id 22 
     name lfingers
     direction 1 -4.49107e-011 -2.63492e-026   
     length 0.950679   
     axis 1.6813e-014 90 90   XYZ
    dof rx
    limits (0.0 90.0)
  end
  begin
     id 23
     name lthumb
     direction 0.707107 -6.35048e-011 0.707107   
     length 1.36499   
     axis -90 45 2.85299e-015   XYZ
    dof rx rz
    limits (-45.0 45.0)
           (-45.0 45.0)
  end
  begin
     id 24 
     name rclavicle
     direction -0.996699 0.0642895 -0.0495725   
     length 4.62611  
     axis 0 0 0   XYZ 
    dof ry rz
    limits (-10.0 20.0)
           (-20.0 0.0)
  end
  begin
     id 25 
     name rhumerus
     direction -1 -4.48919e-011 -2.41059e-027  
     length 5.4981   
     axis 180 30 90   XYZ
    dof rx ry rz
    limits (-90.0 60.0)
           (-90.0 90.0)
           (-90.0 90.0)
  end
  begin
     id 26 
     name rradius
     direction -0.999999 0.00118101 -0.000681858   
     length 3.48381   
     axis 180 30 90   XYZ
    dof rx
    limits (-10.0 170.0)
  end
  begin
     id 27 
     name rwrist
     direction -0.999999 0.000321823 -0.00132288   
     length 1.7419   
     axis 4.65056e-015 -90 -90   XYZ
    dof ry
    limits (-180.0 0.0)
  end
  begin
     id 28
     name rhand
     direction -1 -4.49022e-011 -1.31746e-026   
     length 1.34932   
     axis 8.4065e-015 -90 -90   XYZ
    dof rx rz
    limits (-90.0 90.0)
           (-45.0 45.0)
  end
  begin
     id 29
     name rfingers
     direction -1 -4.49178e-011 -2.63492e-026   
     length 1.08785   
     axis 1.6813e-014 -90 -90   XYZ
    dof rx
    limits (0.0 90.0)
  end
  begin
     id 30
     name rthumb
     direction -0.707107 -6.34713e-011 0.707107   
     length 1.56195   
     axis -90 -45 -2.85299e-015   XYZ
    dof rx rz
    limits (-45.0 45.0)
           (-45.0 45.0)
  end
:hierarchy
  begin
    root lhipjoint rhipjoint lowerback
    lhipjoint lfemur
    lfemur ltibia
    ltibia lfoot
    lfoot ltoes
    rhipjoint rfemur
    rfemur rtibia
    rtibia rfoot
    rfoot rtoes
    lowerback upperback
    upperback thorax
    thorax lowerneck lclavicle rclavicle
    lowerneck upperneck
    upperneck head
    lclavicle lhumerus
    lhumerus lradius
    lradius lwrist
    lwrist lhand lthumb
    lhand lfingers
    rclavicle rhumerus
    rhumerus rradius
    rradius rwrist
    rwrist rhand rthumb
    rhand rfingers
  end

#!OML:ASF X:\für Bonn\!DataBase\2005_08_10_Bjorn_Final\c3d\bjorn.ASF
:FULLY-SPECIFIED
:DEGREES
16
root -21.22 19.415 -0.135638 -354.66 -84.4162 -0.416318
lowerback -12.1397 0.196709 -1.65069
upperback 4.95473 0.689958 -1.50786
thorax 12.2691 0.257533 -0.566491
lowerneck -2.10381 -2.70277 4.48051
upperneck 6.1124 -3.61776 -3.76092
head 2.14598 -1.81337 -2.06681
rclavicle -2.04748e-014 1.03368e-014
rhumerus -40.1498 2.45128 -93.1681
rradius 88.7085
rwrist -6.95347
rhand -9.12729 6.45266
rfingers 7.12502
rthumb 16.8239 -22.8385
lclavicle -2.04748e-014 1.03368e-014
lhumerus -26.8768 9.28093 80.6805
lradius 23.6301
lwrist -43.4545
lhand -18.4282 3.89169
lfingers 7.12502
lthumb 7.85704 33.7257
rfemur -9.7744 -12.7293 15.7101
rtibia 23.7096
rfoot -12.2104 15.8921
rtoes 0.474278
lfemur -13.5962 17.4041 -17.6589
ltibia 25.9429
lfoot -6.40963 -22.9376
ltoes 6.60925
17
root -21.2111 19.4165 -0.139257 -354.476 -84.5777 -0.594564
lowerback -12.1447 0.230752 -1.65781
upperback 4.95061 0.741325 -1.54939
thorax 12.268 0.283123 -0.596425
lowerneck -1.97928 -2.70108 4.51422
upperneck 6.06792 -3.61186 -3.77674
head 2.10842 -1.80957 -2.07379
rclavicle -1.31198e-014 -6.36111e-015
rhumerus -38.9081 3.27152 -93.0361
rradius 91.1742
rwrist -7.02629
rhand -9.59939 6.73419
rfingers 7.12502
rthumb 16.3694 -22.595
lclavicle -1.31198e-014 -6.36111e-015
lhumerus -26.8155 9.4588 80.5349
lradius 23.3607
lwrist -43.3498
lhand -18.6763 4.01802
lfingers 7.12502
lthumb 7.61765 33.8608
rfemur -9.8582 -12.7554 15.7342
rtibia 23.7322
rfoot -12.1059 16.0598
rtoes 0.554006
lfemur -13.5959 17.3818 -17.6478
ltibia 25.9123
lfoot -6.4736 -22.7307
ltoes 6.40831
18
root -21.2015 19.4174 -0.143803 -354.482 -84.7183 -0.582279
lowerback -12.157 0.265955 -1.68203
upperback 4.95733 0.800132 -1.61704
thorax 12.2842 0.31186 -0.643794
lowerneck -1.90931 -2.70729 4.58603
upperneck 6.0539 -3.61991 -3.78914
head 2.08971 -1.81196 -2.08876
rclavicle -1.93815e-014 -3.18055e-015
rhumerus -37.4312 4.05827 -92.8735
rradius 93.3918
rwrist -7.01902
rhand -10.146 6.96093
rfingers 7.12502
rthumb 15.843 -22.4109
lclavicle -1.93815e-014 -3.18055e-015
lhumerus -26.7119 9.53995 80.389
lradius 23.0667
lwrist -43.1191
lhand -18.8061 4.09679
lfingers 7.12502
lthumb 7.4923 33.9441
rfemur -9.93518 -12.7383 15.7477
rtibia 23.7548
rfoot -12.039 16.1699
rtoes 0.522274
lfemur -13.6055 17.4259 -17.6539
ltibia 25.8815
lfoot -6.49467 -22.6156
ltoes 6.32044
19
root -21.1927 19.4189 -0.148192 -354.299 -84.8786 -0.764966
lowerback -12.1861 0.311182 -1.69968
upperback 4.97919 0.87089 -1.67331
thorax 12.3279 0.345998 -0.679827
lowerneck -1.87743 -2.71351 4.63445
upperneck 6.07031 -3.62789 -3.80816
head 2.08809 -1.81517 -2.10337
rclavicle 2.98177e-016 -9.54166e-015
rhumerus -35.6855 4.88002 -92.6025
rradius 95.2987
rwrist -7.00019
rhand -10.7952 7.20081
rfingers 7.12502
rthumb 15.2178 -22.2195
lclavicle 2.98177e-016 -9.54166e-015
lhumerus -26.5612 9.44016 80.3225
lradius 22.7687
lwrist -42.6439
lhand -18.8161 4.05856
lfingers 7.12502
lthumb 7.4827 33.9062
rfemur -10.008 -12.706 15.7726
rtibia 23.7767
rfoot -11.9528 16.2947
rtoes 0.604565
lfemur -13.6018 17.39 -17.6358
ltibia 25.8507
lfoot -6.50214 -22.3997
ltoes 6.333
20
root -21.1835 19.4205 -0.152561 -354.287 -85.011 -0.763279
lowerback -12.2123 0.350363 -1.74346
upperback 4.97874 0.93889 -1.74173
thorax 12.3443 0.377564 -0.714817
lowerneck -1.77995 -2.73963 4.68589
upperneck 6.0528 -3.66143 -3.80498
head 2.06252 -1.83019 -2.1092
rclavicle 1.46107e-014 -1.27222e-014
rhumerus -33.7937 5.67426 -92.2728
rradius 96.9918
rwrist -6.89457
rhand -11.5238 7.42186
rfingers 7.12502
rthumb 14.5158 -22.0503
lclavicle 1.46107e-014 -1.27222e-014
lhumerus -26.4281 9.32187 80.2577
lradius 22.4566
lwrist -42.1623
lhand -18.7202 3.95721
lfingers 7.12502
lthumb 7.57525 33.8016
rfemur -10.0921 -12.7008 15.7877
rtibia 23.7999
rfoot -11.8795 16.4011
rtoes 0.646285
lfemur -13.6171 17.4327 -17.6428
ltibia 25.8221
lfoot -6.54362 -22.2963
ltoes 6.16517
21
root -21.1751 19.4218 -0.156835 -354.262 -85.1679 -0.7957
lowerback -12.222 0.415743 -1.76619
upperback 4.98825 1.04053 -1.83402
thorax 12.3632 0.427656 -0.780415
lowerneck -1.74587 -2.77344 4.73605
upperneck 6.09319 -3.70926 -3.76463
head 2.06726 -1.85161 -2.10568
rclavicle 9.93923e-017 2.38542e-015
rhumerus -31.7907 6.36724 -91.8951
rradius 98.5328
rwrist -6.70466
rhand -12.3939 7.93163
rfingers 7.12502
rthumb 13.6774 -21.5989
lclavicle 9.93923e-017 2.38542e-015
lhumerus -26.2415 9.01857 80.2176
lradius 22.1102
lwrist -41.5206
lhand -18.5824 3.88651
lfingers 7.12502
lthumb 7.7082 33.726
rfemur -10.1543 -12.6709 15.794
rtibia 23.822
rfoot -11.785 16.524
rtoes 0.809072
lfemur -13.6029 17.427 -17.6417
ltibia 25.7907
lfoot -6.56976 -22.119
ltoes 6.08563
22
root -21.1664 19.4229 -0.160759 -354.07 -85.312 -0.994114
lowerback -12.228 0.47517 -1.79618
upperback 4.98753 1.13335 -1.90872
thorax 12.3677 0.472329 -0.824503
lowerneck -1.66047 -2.81759 4.76447
upperneck 6.10355 -3.76797 -3.72917
head 2.05259 -1.8789 -2.09803
rclavicle 1.05356e-014 1.82882e-014
rhumerus -29.7165 7.05498 -91.3678
rradius 99.9672
rwrist -6.56605
rhand -13.4208 8.68339
rfingers 7.12502
rthumb 12.6876 -20.9112
lclavicle 1.05356e-014 1.82882e-014
lhumerus -26.0487 8.78505 80.1845
lradius 21.7314
lwrist -40.9135
lhand -18.3797 3.76306
lfingers 7.12502
lthumb 7.9039 33.5953
rfemur -10.2218 -12.6877 15.8182
rtibia 23.8489
rfoot -11.6954 16.6675
rtoes 0.877616
lfemur -13.5934 17.4768 -17.6266
ltibia 25.7596
lfoot -6.58803 -21.9909
ltoes 5.97707
23
root -21.1579 19.4243 -0.165045 -353.85 -85.4667 -1.20831
lowerback -12.2554 0.542659 -1.83029
upperback 4.99157 1.23915 -1.98931
thorax 12.3911 0.522912 -0.869756
lowerneck -1.61348 -2.85912 4.76063
upperneck 6.13906 -3.8254 -3.65563
head 2.05418 -1.90545 -2.0736
rclavicle -4.67144e-015 -2.62396e-014
rhumerus -27.5415 7.66872 -90.7563
rradius 101.281
rwrist -6.41586
rhand -14.3812 9.33074
rfingers 7.12502
rthumb 11.7615 -20.319
lclavicle -4.67144e-015 -2.62396e-014
lhumerus -25.8273 8.50483 80.1738
lradius 21.3552
lwrist -40.2752
lhand -18.1036 3.65864
lfingers 7.12502
lthumb 8.17037 33.4807
rfemur -10.2961 -12.6486 15.844
rtibia 23.8731
rfoot -11.6219 16.7798
rtoes 0.961543
lfemur -13.5933 17.4593 -17.6132
ltibia 25.7308
lfoot -6.63289 -21.8052
ltoes 5.89901
24
root -21.1497 19.4255 -0.16933 -353.985 -85.6089 -1.07282
lowerback -12.2699 0.612372 -1.9059
upperback 4.99155 1.35494 -2.07464
thorax 12.4015 0.575087 -0.89453
lowerneck -1.56714 -2.92024 4.73218
upperneck 6.18366 -3.90974 -3.55367
head 2.05846 -1.94522 -2.0361
rclavicle 9.14409e-015 -8.74653e-015
rhumerus -25.3166 8.18497 -90.0883
rradius 102.47
rwrist -6.26733
rhand -15.1326 9.63683
rfingers 7.12502
rthumb 11.0368 -20.053
lclavicle 9.14409e-015 -8.74653e-015
lhumerus -25.5921 8.22778 80.1743
lradius 20.9726
lwrist -39.6833
lhand -17.7925 3.58998
lfingers 7.12502
lthumb 8.47057 33.4001
rfemur -10.3705 -12.7069 15.8378
rtibia 23.8986
rfoot -11.5071 16.9459
rtoes 0.955638
lfemur -13.5926 17.4422 -17.6302
ltibia 25.7041
lfoot -6.68795 -21.6229
ltoes 5.69063
